<?xml version="1.0" encoding="UTF-8"?>
<svg width="752pt" height="752pt" version="1.1" viewBox="0 0 752 752" xmlns="http://www.w3.org/2000/svg">
 <path d="m369.13 211.8c-6.0234 0-10.898-4.875-10.898-10.898 0-6.0234 4.875-10.898 10.898-10.898h214.56c6.0234 0 10.898 4.875 10.898 10.898 0 6.0117-4.875 10.898-10.898 10.898zm-170.21 201.66h79.59c11.422 0 21.809 4.6602 29.324 12.176s12.176 17.887 12.176 29.324v79.59c0 11.422-4.6602 21.809-12.176 29.324s-17.902 12.176-29.324 12.176h-79.59c-11.422 0-21.809-4.6602-29.309-12.176-7.5156-7.5156-12.191-17.887-12.191-29.324v-79.59c0-11.422 4.6758-21.809 12.191-29.324 7.5156-7.5156 17.887-12.176 29.309-12.176zm79.59 21.781h-79.59c-5.4141 0-10.344 2.2148-13.922 5.7969-3.582 3.582-5.7969 8.4961-5.7969 13.922v79.59c0 5.4141 2.2148 10.344 5.7969 13.922 3.582 3.582 8.5117 5.7969 13.922 5.7969h79.59c5.4141 0 10.344-2.2148 13.922-5.7969 3.582-3.582 5.7969-8.4961 5.7969-13.922v-79.59c0-5.4141-2.2148-10.344-5.7969-13.922-3.582-3.582-8.5117-5.7969-13.922-5.7969zm90.617 126.73c-6.0234 0-10.898-4.875-10.898-10.898 0-6.0117 4.875-10.898 10.898-10.898h145.71c6.0117 0 10.898 4.875 10.898 10.898 0 6.0234-4.875 10.898-10.898 10.898zm0-112.65c-6.0234 0-10.898-4.875-10.898-10.898s4.875-10.898 10.898-10.898h214.56c6.0234 0 10.898 4.875 10.898 10.898 0 6.0117-4.875 10.898-10.898 10.898zm-170.21-273.39h79.59c11.422 0 21.809 4.6602 29.324 12.176 7.5156 7.5156 12.176 17.887 12.176 29.324v79.59c0 11.422-4.6602 21.809-12.176 29.324s-17.902 12.176-29.324 12.176h-79.59c-11.422 0-21.809-4.6602-29.309-12.176-7.5156-7.5156-12.191-17.887-12.191-29.324v-79.59c0-11.422 4.6758-21.809 12.191-29.324 7.5156-7.5156 17.887-12.176 29.309-12.176zm79.59 21.781h-79.59c-5.4141 0-10.344 2.2148-13.922 5.7969-3.582 3.582-5.7969 8.4961-5.7969 13.922v79.59c0 5.4141 2.2148 10.344 5.7969 13.922 3.582 3.582 8.5117 5.7969 13.922 5.7969h79.59c5.4141 0 10.344-2.2148 13.922-5.7969 3.582-3.582 5.7969-8.4961 5.7969-13.922v-79.59c0-5.4141-2.2148-10.344-5.7969-13.922-3.582-3.582-8.5117-5.7969-13.922-5.7969zm90.617 126.73c-6.0234 0-10.898-4.875-10.898-10.898 0-6.0117 4.875-10.898 10.898-10.898h145.71c6.0117 0 10.898 4.875 10.898 10.898 0 6.0234-4.875 10.898-10.898 10.898z"/>
</svg>
