<?xml version="1.0" encoding="UTF-8"?>
<svg width="752pt" height="752pt" version="1.1" viewBox="0 0 752 752" xmlns="http://www.w3.org/2000/svg">
 <path d="m257.61 522.81h236.79c15.629 0 28.414-12.785 28.414-28.414 0-54.461-30.781-104.19-78.141-129.76 10.422-14.207 16.578-31.258 16.578-50.199 0-46.883-38.359-85.246-85.246-85.246-46.883 0-85.246 38.359-85.246 85.246 0 18.941 6.1562 35.992 16.574 50.199-47.355 25.098-78.137 74.824-78.137 129.76 0 15.625 12.785 28.414 28.414 28.414zm118.39-265.21c31.258 0 56.828 25.574 56.828 56.828 0 31.258-25.574 56.828-56.828 56.828-31.258 0-56.828-25.574-56.828-56.828s25.574-56.828 56.828-56.828zm-46.883 127.87c13.262 8.9961 29.836 14.207 46.883 14.207 17.523 0 33.625-5.2109 46.883-14.207 43.098 18.945 71.516 61.566 71.516 108.93h-236.79c0-47.359 28.414-89.98 71.512-108.93z"/>
</svg>
